<svg viewBox="0 0 512 512" width="100%" height="100%" pointer-events="none" xmlns="http://www.w3.org/2000/svg"><path d="M180.706 240.941H0V60.235h30.117v123.754C60.626 87.823 151.672 18.824 255.999 18.824c105.592 0 199.409 71.077 228.111 172.845l-29.003 8.162C430.049 110.984 348.159 48.912 255.999 48.912c-97.159.03-181.188 68.548-202.029 161.912h126.735v30.118zm150.588 30.118v30.118h126.735C437.157 394.572 353.25 463.059 256 463.059c-92.22 0-174.08-62.072-199.108-150.92l-29.003 8.162C56.561 422.068 150.378 493.146 256 493.146c104.177 0 195.012-68.668 225.882-165.105v123.724H512V271.059H331.294z" fill="currentColor"/></svg>