<svg width="512" height="512" xmlns="http://www.w3.org/2000/svg" pointer-events="none">

 <g>
  <title>Layer 1</title>
  <path stroke="null" id="svg_1" fill="currentColor" d="m255.49766,197.0439l0.0775,-108.3943c40.93419,0 71.2893,26.36948 75.42994,69.45077l-39.1258,52.24524a57.03604,57.03604 0 0 1 13.59593,16.7276l97.58415,-56.40023c20.54532,35.41573 12.41904,74.81853 -22.84312,99.95946l-68.74464,-8.11623a56.39018,56.39018 0 0 1 -7.85358,21.16964l99.44134,57.47235c-20.54388,35.4143 -58.56599,48.29549 -97.96592,30.20298l-27.96115,-65.1824a56.5294,56.5294 0 0 1 -21.55859,4.3143l0,115.60346c-40.93563,0 -70.9836,-26.52305 -75.12424,-69.75791l42.14553,-56.33851a57.06331,57.06331 0 0 1 -15.28663,-16.18652l-99.22318,57.34605c-20.54388,-35.41573 -12.41904,-74.81853 22.84312,-99.96089l67.96244,8.02581a56.40453,56.40453 0 0 1 6.56044,-22.27477l-97.366,-56.27536c20.69602,-35.41573 58.721,-48.29549 97.96879,-30.20298l26.35656,61.44506a56.85663,56.85663 0 0 1 23.08567,-4.87117l0.00144,-0.00144zm255.63597,59.52472c0,196.00648 -213.64545,319.17504 -383.63839,221.1718s-169.99437,-344.34036 0,-442.34503s383.63695,25.16676 383.63695,221.17323l0.00144,0zm-59.153,0c0,-150.64029 -164.19604,-245.30088 -294.84215,-169.98002c-130.64898,75.31943 -130.64898,264.64061 0,339.96004s294.84215,-19.34116 294.84215,-169.98002z"/>
 </g>
</svg>