<svg xmlns="http://www.w3.org/2000/svg" xmlns:xlink="http://www.w3.org/1999/xlink" version="1.1" width="940" height="788" viewBox="0 0 940 788" xml:space="preserve">
<desc>Created with Fabric.js 3.5.0</desc>
<defs>
</defs>
<rect x="0" y="0" width="100%" height="100%" fill="#ffffff"/>
<g transform="matrix(1.0033 0 0 1.0033 470.5851 399.1873)" id="719108">
<g style="" vector-effect="non-scaling-stroke">
		<g transform="matrix(1 0 0 1 -450 -450)">
<rect style="stroke: none; stroke-width: 1; stroke-dasharray: none; stroke-linecap: butt; stroke-dashoffset: 0; stroke-linejoin: miter; stroke-miterlimit: 4; is-custom-font: none; font-file-url: none; fill: rgb(255,255,255); fill-rule: nonzero; opacity: 1;" x="-50" y="-50" rx="0" ry="0" width="100" height="100"/>
</g>
		<g transform="matrix(8.1694 0 0 9.2808 54.0432 125.2909)" id="893926">
<path style="stroke: none; stroke-width: 1; stroke-dasharray: none; stroke-linecap: butt; stroke-dashoffset: 0; stroke-linejoin: miter; stroke-miterlimit: 4; is-custom-font: none; font-file-url: none; fill: rgb(20,61,143); fill-rule: nonzero; opacity: 1;" vector-effect="non-scaling-stroke" transform=" translate(-62.2561, -51.3662)" d="M 103.24 27 c -1.46 4.75 -2.77 9.06 -4.11 13.37 c -3.44 11 -6.94 22.08 -10.3 33.15 a 2.56 2.56 0 0 1 -3 2.17 c -7.88 -0.07 -15.76 -0.09 -23.63 0 c -1.83 0 -2.68 -0.6 -3.15 -2.31 c -1 -3.49 -2.08 -6.93 -3.28 -10.88 C 54.32 64.81 54 67 53.36 69 c -2.17 6.66 -2.12 6.67 -9.08 6.66 H 25.37 c -1.64 0 -2.26 -0.56 -3 -2.12 c -2.47 -5.12 -0.48 -8.9 3.07 -12.38 C 31.42 55.38 39 52.5 46.74 50 c 8.68 -2.81 17.8 -3.88 26.5 -6.58 c 10.6 -3.28 20.66 -7.58 28.67 -15.63 a 6.92 6.92 0 0 1 1.33 -0.79 z" stroke-linecap="round"/>
</g>
		<g transform="matrix(8.1694 0 0 9.2808 0.0001 -99.4277)" id="893926">
<path style="stroke: none; stroke-width: 1; stroke-dasharray: none; stroke-linecap: butt; stroke-dashoffset: 0; stroke-linejoin: miter; stroke-miterlimit: 4; is-custom-font: none; font-file-url: none; fill: rgb(20,125,200); fill-rule: nonzero; opacity: 1;" vector-effect="non-scaling-stroke" transform=" translate(-55.6408, -27.1529)" d="M 55.68 0.62 c 2.08 2.83 2.8 5.67 3.93 8.28 c 4 9.26 7.82 18.61 11.79 27.88 c 0.72 1.67 0.75 2.44 -1.3 2.88 c -6.89 1.49 -13.89 2.25 -20.84 3.34 c -10.83 1.68 -21.53 4 -30.72 10.59 c -1.48 1.06 -2 1.08 -2.64 -0.88 C 10.87 36.24 5.72 19.82 0.6 3.38 C -0.44 0 -0.44 0 3.18 0 C 9.32 0 15.46 0.08 21.6 0 c 1.68 0 2.42 0.49 2.93 2.19 q 5.31 17.6 10.89 35.09 c 0.52 1.63 0 3.69 2.13 5.09 z M 99.5 0 h 10.2 c 1.51 0 1.86 0.49 1.38 2 c -1.72 5.27 -3.15 10.64 -5 15.86 s -6.29 8.41 -10.63 11.46 a 64.69 64.69 0 0 1 -17 8.06 c -0.68 0.22 -1.49 0.73 -2.1 0.1 s 0 -1.41 0.19 -2.09 c 3.4 -11.09 6.86 -22.15 10.23 -33.24 C 87.23 0.62 87.91 0 89.54 0 c 3.32 0.1 6.64 0 9.96 0 z" stroke-linecap="round"/>
</g>
</g>
</g>
</svg>