<svg viewBox="0 0 1024 1024" width="100%" height="100%" pointer-events="none"
    xmlns="http://www.w3.org/2000/svg">
    <path d="m960.48 415.04-82.144-18.208c-6.4-20.48-14.784-40.064-24.384-58.912l44.448-74.016c16.576-26.528 24.96-65.504 0-90.528l-45.28-45.248c-24.96-24.992-67.136-20.48-92.608-2.816L688.48 171.2c-18.688-9.696-38.24-18.016-58.528-24.576L611.52 63.488C606.016 32.992 579.36 0 544 0h-64c-35.328 0-56.992 33.504-64 64l-20.544 82.144c-21.696 6.912-42.496 15.744-62.336 26.208l-73.856-47.04c-25.44-17.664-67.648-22.144-92.608 2.816l-45.28 45.248c-24.992 25.024-16.608 64 0 90.496l46.752 77.92c-8.768 17.664-16.544 35.936-22.56 55.04L63.456 415.04C32.96 420.512-.032 447.2-.032 482.528v64c0 35.36 33.504 57.024 64 64l83.136 20.768c5.728 17.632 12.928 34.56 21.056 50.976l-46.784 78.016c-16.576 26.496-24.96 65.504 0 90.496l45.28 45.248c24.96 25.024 67.136 20.48 92.608 2.848l74.016-47.168c19.936 10.528 40.864 19.456 62.72 26.336l20.48 81.888c7.008 30.496 28.672 64 64 64h64c35.36 0 62.016-33.024 67.52-63.52l18.464-83.328c20.096-6.496 39.36-14.688 57.856-24.256l72.192 46.016c25.472 17.664 67.648 22.144 92.64-2.848l45.28-45.248c24.96-25.024 16.576-64 0-90.496l-44.48-74.144c8.928-17.568 16.672-35.84 22.912-54.848l83.168-20.768c30.496-7.008 64-28.64 64-64v-64c0-35.328-32.992-62.016-63.52-67.52zm-.448 127.008c-2.72 1.952-7.84 4.64-14.336 6.144L827.04 577.824l-11.008 33.632c-4.96 15.168-11.392 30.528-19.104 45.696l-16.064 31.552 62.688 104.544c4 6.4 5.856 12.128 6.432 15.52l-42.112 42.048c-4.064-1.28-8.672-2.944-10.912-4.48l-105.344-67.168-32.736 16.928c-15.776 8.192-31.968 14.976-48.096 20.192l-34.88 11.264-26.368 119.136c-1.216 6.368-4.64 11.52-6.976 13.344h-57.6c-1.952-2.72-4.64-7.84-6.112-14.336l-29.472-117.792-34.112-10.816c-17.568-5.536-35.104-12.928-52.16-21.888l-32.896-17.376-105.376 67.168c-4.32 2.912-8.928 4.576-13.088 4.576l-41.952-40.832c.576-3.328 2.304-8.768 5.792-14.368l65.44-109.056-15.584-31.36c-7.264-14.784-13.024-28.64-17.504-42.4l-10.976-33.664-117.472-29.376c-7.392-1.664-12.736-4.448-15.52-6.4v-59.52c.032.032.064.032.16.032 1.088 0 6.336-3.744 10.72-4.544l120.704-26.72 11.072-35.296c4.512-14.368 10.656-29.344 18.816-45.76l15.584-31.36-64.768-107.936c-4-6.432-5.888-12.16-6.432-15.52l42.08-42.048c4.096 1.312 8.672 2.976 10.88 4.48l107.328 68.416 32.864-17.344c16.864-8.896 34.336-16.224 51.904-21.824l34.016-10.816L478.08 79.584c1.696-7.392 4.416-12.736 6.4-15.52h59.488c-.448.64 3.68 6.24 4.544 10.848l26.88 121.408 34.848 11.264c16.352 5.28 32.736 12.16 48.736 20.448l32.736 17.024L794.88 179.36c4.32-2.944 8.928-4.576 13.088-4.576l42.016 40.832c-.544 3.328-2.304 8.832-5.792 14.4l-63.36 105.472 16.16 31.616c8.736 17.056 15.36 33.056 20.32 48.928l11.072 35.328 118.304 26.24c7.168 1.312 12.736 5.472 13.888 7.712zM512.416 319.68c-106.272 0-192.736 86.304-192.736 192.32s86.464 192.32 192.736 192.32 192.736-86.304 192.736-192.288c0-106.016-86.464-192.32-192.736-192.32zM512 640c-70.56 0-128-57.408-128-128s57.408-128 128-128 128 57.408 128 128-57.408 128-128 128z" fill="currentColor"/>
</svg>